<?xml version="1.0" encoding="UTF-8"?>
<svg xmlns="http://www.w3.org/2000/svg" xmlns:xlink="http://www.w3.org/1999/xlink" width="375pt" height="374.999991pt" viewBox="0 0 375 374.999991" version="1.2">
<defs>
<clipPath id="clip1">
  <path d="M 4.703125 4.703125 L 369.613281 4.703125 L 369.613281 369.613281 L 4.703125 369.613281 Z M 4.703125 4.703125 "/>
</clipPath>
</defs>
<g id="surface1">
<path style=" stroke:none;fill-rule:nonzero;fill:rgb(99.609375%,83.529663%,70.199585%);fill-opacity:1;" d="M 303.265625 364.085938 L 71.050781 364.085938 C 37.464844 364.085938 10.234375 336.855469 10.234375 303.265625 L 10.234375 71.050781 C 10.234375 37.464844 37.464844 10.234375 71.050781 10.234375 L 303.265625 10.234375 C 336.855469 10.234375 364.085938 37.464844 364.085938 71.050781 L 364.085938 303.265625 C 364.085938 336.855469 336.855469 364.085938 303.265625 364.085938 Z M 303.265625 364.085938 "/>
<path style=" stroke:none;fill-rule:nonzero;fill:rgb(83.918762%,56.079102%,32.548523%);fill-opacity:1;" d="M 10.234375 126.339844 L 10.234375 71.050781 C 10.234375 37.464844 37.464844 10.234375 71.050781 10.234375 L 303.265625 10.234375 C 336.855469 10.234375 364.085938 37.464844 364.085938 71.050781 L 364.085938 126.339844 Z M 10.234375 126.339844 "/>
<path style=" stroke:none;fill-rule:nonzero;fill:rgb(94.509888%,35.688782%,42.349243%);fill-opacity:1;" d="M 54.464844 120.8125 L 32.347656 120.8125 L 32.347656 21.292969 L 54.464844 15.761719 Z M 54.464844 120.8125 "/>
<path style=" stroke:none;fill-rule:nonzero;fill:rgb(97.648621%,90.19928%,36.079407%);fill-opacity:1;" d="M 48.9375 120.8125 L 71.050781 120.8125 L 71.050781 10.234375 L 48.9375 15.761719 Z M 48.9375 120.8125 "/>
<path style=" stroke:none;fill-rule:nonzero;fill:rgb(63.139343%,82.749939%,63.529968%);fill-opacity:1;" d="M 65.523438 10.234375 L 87.636719 10.234375 L 87.636719 120.8125 L 65.523438 120.8125 Z M 65.523438 10.234375 "/>
<path style=" stroke:none;fill-rule:nonzero;fill:rgb(22.349548%,76.078796%,84.709167%);fill-opacity:1;" d="M 82.109375 10.234375 L 104.226562 10.234375 L 104.226562 120.8125 L 82.109375 120.8125 Z M 82.109375 10.234375 "/>
<path style=" stroke:none;fill-rule:nonzero;fill:rgb(71.759033%,46.669006%,28.239441%);fill-opacity:1;" d="M 278.386719 46.171875 L 322.617188 46.171875 L 322.617188 90.402344 L 278.386719 90.402344 Z M 278.386719 46.171875 "/>
<path style=" stroke:none;fill-rule:nonzero;fill:rgb(99.609375%,99.21875%,93.728638%);fill-opacity:1;" d="M 187.160156 98.695312 C 185.710938 98.695312 184.265625 98.730469 182.820312 98.804688 C 181.371094 98.875 179.929688 98.980469 178.488281 99.121094 C 177.046875 99.265625 175.613281 99.441406 174.179688 99.652344 C 172.746094 99.867188 171.320312 100.113281 169.902344 100.394531 C 168.480469 100.679688 167.070312 100.996094 165.664062 101.347656 C 164.261719 101.699219 162.867188 102.085938 161.480469 102.503906 C 160.09375 102.925781 158.71875 103.378906 157.355469 103.867188 C 155.992188 104.355469 154.644531 104.875 153.304688 105.429688 C 151.96875 105.984375 150.644531 106.570312 149.335938 107.191406 C 148.027344 107.808594 146.734375 108.460938 145.457031 109.140625 C 144.179688 109.824219 142.921875 110.539062 141.679688 111.28125 C 140.4375 112.027344 139.214844 112.800781 138.011719 113.605469 C 136.808594 114.410156 135.625 115.242188 134.460938 116.105469 C 133.300781 116.96875 132.160156 117.859375 131.039062 118.777344 C 129.921875 119.695312 128.824219 120.640625 127.75 121.613281 C 126.679688 122.585938 125.628906 123.582031 124.605469 124.605469 C 123.582031 125.628906 122.585938 126.679688 121.613281 127.75 C 120.640625 128.824219 119.695312 129.921875 118.777344 131.039062 C 117.859375 132.160156 116.96875 133.300781 116.105469 134.460938 C 115.242188 135.625 114.410156 136.808594 113.605469 138.011719 C 112.800781 139.214844 112.027344 140.4375 111.28125 141.679688 C 110.539062 142.921875 109.824219 144.179688 109.140625 145.457031 C 108.460938 146.734375 107.808594 148.027344 107.191406 149.335938 C 106.570312 150.644531 105.984375 151.96875 105.429688 153.304688 C 104.875 154.644531 104.355469 155.992188 103.867188 157.355469 C 103.378906 158.71875 102.925781 160.09375 102.503906 161.480469 C 102.085938 162.867188 101.699219 164.261719 101.347656 165.664062 C 100.996094 167.070312 100.679688 168.480469 100.394531 169.902344 C 100.113281 171.320312 99.867188 172.746094 99.652344 174.179688 C 99.441406 175.613281 99.265625 177.046875 99.121094 178.488281 C 98.980469 179.929688 98.875 181.371094 98.804688 182.820312 C 98.730469 184.265625 98.695312 185.710938 98.695312 187.160156 C 98.695312 188.605469 98.730469 190.054688 98.804688 191.5 C 98.875 192.945312 98.980469 194.390625 99.121094 195.832031 C 99.265625 197.269531 99.441406 198.707031 99.652344 200.140625 C 99.867188 201.570312 100.113281 202.996094 100.394531 204.417969 C 100.679688 205.835938 100.996094 207.25 101.347656 208.65625 C 101.699219 210.058594 102.085938 211.453125 102.503906 212.839844 C 102.925781 214.222656 103.378906 215.597656 103.867188 216.960938 C 104.355469 218.324219 104.875 219.675781 105.429688 221.011719 C 105.984375 222.351562 106.570312 223.671875 107.191406 224.984375 C 107.808594 226.292969 108.460938 227.585938 109.140625 228.859375 C 109.824219 230.136719 110.539062 231.398438 111.28125 232.640625 C 112.027344 233.878906 112.800781 235.101562 113.605469 236.308594 C 114.410156 237.511719 115.242188 238.695312 116.105469 239.855469 C 116.96875 241.019531 117.859375 242.160156 118.777344 243.28125 C 119.695312 244.398438 120.640625 245.496094 121.613281 246.566406 C 122.585938 247.640625 123.582031 248.6875 124.605469 249.710938 C 125.628906 250.734375 126.679688 251.734375 127.75 252.707031 C 128.824219 253.679688 129.921875 254.625 131.039062 255.542969 C 132.160156 256.460938 133.300781 257.351562 134.460938 258.214844 C 135.625 259.078125 136.808594 259.910156 138.011719 260.714844 C 139.214844 261.519531 140.4375 262.292969 141.679688 263.035156 C 142.921875 263.78125 144.179688 264.496094 145.457031 265.175781 C 146.734375 265.859375 148.027344 266.511719 149.335938 267.128906 C 150.644531 267.75 151.96875 268.335938 153.304688 268.890625 C 154.644531 269.441406 155.992188 269.964844 157.355469 270.453125 C 158.71875 270.9375 160.09375 271.394531 161.480469 271.8125 C 162.867188 272.234375 164.261719 272.621094 165.664062 272.972656 C 167.070312 273.324219 168.480469 273.640625 169.902344 273.921875 C 171.320312 274.207031 172.746094 274.453125 174.179688 274.664062 C 175.613281 274.878906 177.046875 275.054688 178.488281 275.195312 C 179.929688 275.339844 181.371094 275.445312 182.820312 275.515625 C 184.265625 275.585938 185.710938 275.621094 187.160156 275.621094 C 188.605469 275.621094 190.054688 275.585938 191.5 275.515625 C 192.945312 275.445312 194.390625 275.339844 195.832031 275.195312 C 197.269531 275.054688 198.707031 274.878906 200.140625 274.664062 C 201.570312 274.453125 202.996094 274.207031 204.417969 273.921875 C 205.835938 273.640625 207.25 273.324219 208.65625 272.972656 C 210.058594 272.621094 211.453125 272.234375 212.839844 271.8125 C 214.222656 271.394531 215.597656 270.9375 216.960938 270.453125 C 218.324219 269.964844 219.675781 269.441406 221.011719 268.890625 C 222.351562 268.335938 223.671875 267.75 224.984375 267.128906 C 226.292969 266.511719 227.585938 265.859375 228.859375 265.175781 C 230.136719 264.496094 231.398438 263.78125 232.640625 263.035156 C 233.878906 262.292969 235.101562 261.519531 236.308594 260.714844 C 237.511719 259.910156 238.695312 259.078125 239.855469 258.214844 C 241.019531 257.351562 242.160156 256.460938 243.28125 255.542969 C 244.398438 254.625 245.496094 253.679688 246.566406 252.707031 C 247.640625 251.734375 248.6875 250.734375 249.710938 249.710938 C 250.734375 248.6875 251.734375 247.640625 252.707031 246.566406 C 253.679688 245.496094 254.625 244.398438 255.542969 243.28125 C 256.460938 242.160156 257.351562 241.019531 258.214844 239.855469 C 259.078125 238.695312 259.910156 237.511719 260.714844 236.308594 C 261.519531 235.101562 262.292969 233.878906 263.035156 232.640625 C 263.78125 231.398438 264.496094 230.136719 265.175781 228.859375 C 265.859375 227.585938 266.511719 226.292969 267.128906 224.984375 C 267.75 223.671875 268.335938 222.351562 268.890625 221.011719 C 269.441406 219.675781 269.964844 218.324219 270.453125 216.960938 C 270.9375 215.597656 271.394531 214.222656 271.8125 212.839844 C 272.234375 211.453125 272.621094 210.058594 272.972656 208.65625 C 273.324219 207.25 273.640625 205.835938 273.921875 204.417969 C 274.207031 202.996094 274.453125 201.570312 274.664062 200.140625 C 274.878906 198.707031 275.054688 197.269531 275.195312 195.832031 C 275.339844 194.390625 275.445312 192.945312 275.515625 191.5 C 275.585938 190.054688 275.621094 188.605469 275.621094 187.160156 C 275.621094 185.710938 275.585938 184.265625 275.515625 182.820312 C 275.445312 181.371094 275.339844 179.929688 275.195312 178.488281 C 275.054688 177.046875 274.878906 175.613281 274.664062 174.179688 C 274.453125 172.746094 274.207031 171.320312 273.921875 169.902344 C 273.640625 168.480469 273.324219 167.070312 272.972656 165.664062 C 272.621094 164.261719 272.234375 162.867188 271.8125 161.480469 C 271.394531 160.09375 270.9375 158.71875 270.453125 157.355469 C 269.964844 155.992188 269.441406 154.644531 268.890625 153.304688 C 268.335938 151.96875 267.75 150.644531 267.128906 149.335938 C 266.511719 148.027344 265.859375 146.734375 265.175781 145.457031 C 264.496094 144.179688 263.78125 142.921875 263.035156 141.679688 C 262.292969 140.4375 261.519531 139.214844 260.714844 138.011719 C 259.910156 136.808594 259.078125 135.625 258.214844 134.460938 C 257.351562 133.300781 256.460938 132.160156 255.542969 131.039062 C 254.625 129.921875 253.679688 128.824219 252.707031 127.75 C 251.734375 126.679688 250.734375 125.628906 249.710938 124.605469 C 248.6875 123.582031 247.640625 122.585938 246.566406 121.613281 C 245.496094 120.640625 244.398438 119.695312 243.28125 118.777344 C 242.160156 117.859375 241.019531 116.96875 239.855469 116.105469 C 238.695312 115.242188 237.511719 114.410156 236.308594 113.605469 C 235.101562 112.800781 233.878906 112.027344 232.640625 111.28125 C 231.398438 110.539062 230.136719 109.824219 228.859375 109.140625 C 227.585938 108.460938 226.292969 107.808594 224.984375 107.191406 C 223.671875 106.570312 222.351562 105.984375 221.011719 105.429688 C 219.675781 104.875 218.324219 104.355469 216.960938 103.867188 C 215.597656 103.378906 214.222656 102.925781 212.839844 102.503906 C 211.453125 102.085938 210.058594 101.699219 208.65625 101.347656 C 207.25 100.996094 205.835938 100.679688 204.417969 100.394531 C 202.996094 100.113281 201.570312 99.867188 200.140625 99.652344 C 198.707031 99.441406 197.269531 99.265625 195.832031 99.121094 C 194.390625 98.980469 192.945312 98.875 191.5 98.804688 C 190.054688 98.730469 188.605469 98.695312 187.160156 98.695312 Z M 187.160156 98.695312 "/>
<path style=" stroke:none;fill-rule:nonzero;fill:rgb(56.079102%,61.959839%,71.369934%);fill-opacity:1;" d="M 187.160156 126.339844 C 185.167969 126.339844 183.179688 126.4375 181.195312 126.632812 C 179.214844 126.824219 177.246094 127.117188 175.289062 127.503906 C 173.335938 127.894531 171.40625 128.375 169.5 128.953125 C 167.589844 129.53125 165.71875 130.199219 163.875 130.960938 C 162.035156 131.722656 160.234375 132.574219 158.476562 133.511719 C 156.722656 134.453125 155.011719 135.472656 153.355469 136.582031 C 151.699219 137.6875 150.101562 138.871094 148.558594 140.136719 C 147.019531 141.398438 145.542969 142.734375 144.136719 144.144531 C 142.726562 145.550781 141.390625 147.027344 140.125 148.566406 C 138.859375 150.105469 137.675781 151.703125 136.566406 153.363281 C 135.460938 155.019531 134.4375 156.726562 133.496094 158.480469 C 132.558594 160.238281 131.707031 162.039062 130.945312 163.878906 C 130.179688 165.71875 129.511719 167.59375 128.933594 169.5 C 128.351562 171.40625 127.871094 173.335938 127.480469 175.289062 C 127.09375 177.246094 126.800781 179.214844 126.605469 181.195312 C 126.410156 183.179688 126.3125 185.167969 126.3125 187.160156 C 126.3125 189.152344 126.410156 191.140625 126.605469 193.121094 C 126.800781 195.105469 127.09375 197.074219 127.480469 199.027344 C 127.871094 200.984375 128.351562 202.914062 128.933594 204.820312 C 129.511719 206.726562 130.179688 208.601562 130.945312 210.441406 C 131.707031 212.28125 132.558594 214.082031 133.496094 215.835938 C 134.4375 217.59375 135.460938 219.300781 136.566406 220.957031 C 137.675781 222.613281 138.859375 224.210938 140.125 225.753906 C 141.390625 227.292969 142.726562 228.765625 144.136719 230.175781 C 145.542969 231.582031 147.019531 232.921875 148.558594 234.183594 C 150.101562 235.445312 151.699219 236.632812 153.355469 237.738281 C 155.011719 238.84375 156.722656 239.867188 158.476562 240.804688 C 160.234375 241.746094 162.035156 242.59375 163.875 243.355469 C 165.71875 244.117188 167.589844 244.789062 169.5 245.367188 C 171.40625 245.945312 173.335938 246.425781 175.289062 246.816406 C 177.246094 247.203125 179.214844 247.492188 181.195312 247.6875 C 183.179688 247.882812 185.167969 247.980469 187.160156 247.976562 C 189.152344 247.980469 191.140625 247.882812 193.121094 247.6875 C 195.105469 247.492188 197.074219 247.203125 199.027344 246.816406 C 200.984375 246.425781 202.914062 245.945312 204.820312 245.367188 C 206.726562 244.789062 208.601562 244.117188 210.441406 243.355469 C 212.285156 242.59375 214.082031 241.746094 215.839844 240.804688 C 217.597656 239.867188 219.304688 238.84375 220.960938 237.738281 C 222.621094 236.632812 224.21875 235.445312 225.757812 234.183594 C 227.300781 232.917969 228.773438 231.582031 230.183594 230.175781 C 231.59375 228.765625 232.929688 227.292969 234.195312 225.753906 C 235.457031 224.210938 236.644531 222.613281 237.75 220.957031 C 238.859375 219.300781 239.882812 217.59375 240.820312 215.835938 C 241.761719 214.082031 242.613281 212.28125 243.375 210.441406 C 244.136719 208.601562 244.808594 206.726562 245.386719 204.820312 C 245.964844 202.914062 246.449219 200.984375 246.839844 199.027344 C 247.226562 197.074219 247.519531 195.105469 247.714844 193.121094 C 247.910156 191.140625 248.007812 189.152344 248.007812 187.160156 C 248.007812 185.167969 247.910156 183.179688 247.714844 181.195312 C 247.519531 179.214844 247.226562 177.246094 246.839844 175.289062 C 246.449219 173.335938 245.964844 171.40625 245.386719 169.5 C 244.808594 167.59375 244.136719 165.71875 243.375 163.878906 C 242.613281 162.039062 241.761719 160.238281 240.820312 158.480469 C 239.882812 156.726562 238.859375 155.019531 237.75 153.363281 C 236.644531 151.703125 235.457031 150.105469 234.195312 148.566406 C 232.929688 147.027344 231.59375 145.550781 230.183594 144.144531 C 228.773438 142.734375 227.300781 141.398438 225.757812 140.136719 C 224.21875 138.871094 222.621094 137.6875 220.960938 136.582031 C 219.304688 135.472656 217.597656 134.453125 215.839844 133.511719 C 214.082031 132.574219 212.285156 131.722656 210.441406 130.960938 C 208.601562 130.199219 206.726562 129.53125 204.820312 128.953125 C 202.914062 128.375 200.984375 127.894531 199.027344 127.503906 C 197.074219 127.117188 195.105469 126.824219 193.121094 126.632812 C 191.140625 126.4375 189.152344 126.339844 187.160156 126.339844 Z M 187.160156 126.339844 "/>
<path style=" stroke:none;fill-rule:nonzero;fill:rgb(47.059631%,80.389404%,83.139038%);fill-opacity:1;" d="M 159.714844 137.796875 C 158.996094 137.796875 158.28125 137.832031 157.566406 137.902344 C 156.851562 137.972656 156.140625 138.078125 155.4375 138.21875 C 154.734375 138.359375 154.039062 138.53125 153.351562 138.742188 C 152.664062 138.949219 151.988281 139.191406 151.328125 139.464844 C 150.664062 139.738281 150.015625 140.046875 149.382812 140.386719 C 148.75 140.722656 148.132812 141.09375 147.539062 141.492188 C 146.941406 141.890625 146.363281 142.316406 145.808594 142.773438 C 145.253906 143.226562 144.722656 143.707031 144.214844 144.214844 C 143.707031 144.722656 143.226562 145.253906 142.773438 145.808594 C 142.316406 146.363281 141.890625 146.941406 141.492188 147.539062 C 141.09375 148.132812 140.722656 148.75 140.386719 149.382812 C 140.046875 150.015625 139.738281 150.664062 139.464844 151.328125 C 139.191406 151.988281 138.949219 152.664062 138.742188 153.351562 C 138.53125 154.039062 138.359375 154.734375 138.21875 155.4375 C 138.078125 156.140625 137.972656 156.851562 137.902344 157.566406 C 137.832031 158.28125 137.796875 158.996094 137.796875 159.714844 C 137.796875 160.433594 137.832031 161.148438 137.902344 161.863281 C 137.972656 162.578125 138.078125 163.285156 138.21875 163.988281 C 138.359375 164.695312 138.53125 165.390625 138.742188 166.074219 C 138.949219 166.761719 139.191406 167.4375 139.464844 168.101562 C 139.738281 168.765625 140.046875 169.414062 140.386719 170.046875 C 140.722656 170.679688 141.09375 171.292969 141.492188 171.890625 C 141.890625 172.488281 142.316406 173.0625 142.773438 173.617188 C 143.226562 174.171875 143.707031 174.703125 144.214844 175.210938 C 144.722656 175.71875 145.253906 176.199219 145.808594 176.65625 C 146.363281 177.109375 146.941406 177.539062 147.539062 177.9375 C 148.132812 178.335938 148.75 178.703125 149.382812 179.042969 C 150.015625 179.382812 150.664062 179.6875 151.328125 179.960938 C 151.988281 180.238281 152.664062 180.480469 153.351562 180.6875 C 154.039062 180.894531 154.734375 181.070312 155.4375 181.210938 C 156.140625 181.347656 156.851562 181.453125 157.566406 181.523438 C 158.28125 181.59375 158.996094 181.628906 159.714844 181.628906 C 160.433594 181.628906 161.148438 181.59375 161.863281 181.523438 C 162.578125 181.453125 163.285156 181.347656 163.988281 181.210938 C 164.695312 181.070312 165.390625 180.894531 166.074219 180.6875 C 166.761719 180.480469 167.4375 180.238281 168.101562 179.960938 C 168.765625 179.6875 169.414062 179.382812 170.046875 179.042969 C 170.679688 178.703125 171.292969 178.335938 171.890625 177.9375 C 172.488281 177.539062 173.0625 177.109375 173.617188 176.65625 C 174.171875 176.199219 174.703125 175.71875 175.210938 175.210938 C 175.71875 174.703125 176.199219 174.171875 176.65625 173.617188 C 177.109375 173.0625 177.539062 172.488281 177.9375 171.890625 C 178.335938 171.292969 178.703125 170.679688 179.042969 170.046875 C 179.382812 169.414062 179.6875 168.765625 179.960938 168.101562 C 180.238281 167.4375 180.480469 166.761719 180.6875 166.074219 C 180.894531 165.390625 181.070312 164.695312 181.210938 163.988281 C 181.347656 163.285156 181.453125 162.578125 181.523438 161.863281 C 181.59375 161.148438 181.628906 160.433594 181.628906 159.714844 C 181.628906 158.996094 181.59375 158.28125 181.523438 157.566406 C 181.453125 156.851562 181.347656 156.140625 181.210938 155.4375 C 181.070312 154.734375 180.894531 154.039062 180.6875 153.351562 C 180.480469 152.664062 180.238281 151.988281 179.960938 151.328125 C 179.6875 150.664062 179.382812 150.015625 179.042969 149.382812 C 178.703125 148.75 178.335938 148.132812 177.9375 147.539062 C 177.539062 146.941406 177.109375 146.363281 176.65625 145.808594 C 176.199219 145.253906 175.71875 144.722656 175.210938 144.214844 C 174.703125 143.707031 174.171875 143.226562 173.617188 142.773438 C 173.0625 142.316406 172.488281 141.890625 171.890625 141.492188 C 171.292969 141.09375 170.679688 140.722656 170.046875 140.386719 C 169.414062 140.046875 168.765625 139.738281 168.101562 139.464844 C 167.4375 139.191406 166.761719 138.949219 166.074219 138.742188 C 165.390625 138.53125 164.695312 138.359375 163.988281 138.21875 C 163.285156 138.078125 162.578125 137.972656 161.863281 137.902344 C 161.148438 137.832031 160.433594 137.796875 159.714844 137.796875 Z M 159.714844 137.796875 "/>
<path style=" stroke:none;fill-rule:nonzero;fill:rgb(71.759033%,46.669006%,28.239441%);fill-opacity:1;" d="M 90.402344 112.519531 L 46.171875 112.519531 C 40.0625 112.519531 35.113281 117.46875 35.113281 123.578125 C 35.113281 129.6875 40.0625 134.632812 46.171875 134.632812 L 90.402344 134.632812 C 96.511719 134.632812 101.460938 129.6875 101.460938 123.578125 C 101.460938 117.46875 96.511719 112.519531 90.402344 112.519531 Z M 90.402344 112.519531 "/>
<path style=" stroke:none;fill-rule:nonzero;fill:rgb(12.159729%,12.939453%,16.859436%);fill-opacity:1;" d="M 186.960938 275.226562 C 172.855469 275.226562 158.824219 271.8125 146.371094 265.367188 C 116.96875 250.105469 98.695312 220.0625 98.695312 186.960938 C 98.695312 138.289062 138.289062 98.695312 186.960938 98.695312 C 235.632812 98.695312 275.226562 138.289062 275.226562 186.960938 C 275.226562 235.632812 235.632812 275.226562 186.960938 275.226562 Z M 186.960938 104.226562 C 141.339844 104.226562 104.226562 141.339844 104.226562 186.960938 C 104.226562 217.988281 121.355469 246.152344 148.921875 260.453125 C 160.753906 266.582031 173.546875 269.695312 186.960938 269.695312 C 232.578125 269.695312 269.695312 232.578125 269.695312 186.960938 C 269.695312 141.339844 232.578125 104.226562 186.960938 104.226562 Z M 186.960938 104.226562 "/>
<path style=" stroke:none;fill-rule:nonzero;fill:rgb(12.159729%,12.939453%,16.859436%);fill-opacity:1;" d="M 283.917969 126.339844 L 245.214844 126.339844 C 243.6875 126.339844 242.449219 125.101562 242.449219 123.578125 C 242.449219 122.050781 243.6875 120.8125 245.214844 120.8125 L 283.917969 120.8125 C 285.441406 120.8125 286.679688 122.050781 286.679688 123.578125 C 286.679688 125.101562 285.441406 126.339844 283.917969 126.339844 Z M 129.105469 126.339844 L 101.460938 126.339844 C 99.933594 126.339844 98.695312 125.101562 98.695312 123.578125 C 98.695312 122.050781 99.933594 120.8125 101.460938 120.8125 L 129.105469 120.8125 C 130.632812 120.8125 131.871094 122.050781 131.871094 123.578125 C 131.871094 125.101562 130.632812 126.339844 129.105469 126.339844 Z M 35.113281 126.339844 L 12.996094 126.339844 C 11.472656 126.339844 10.234375 125.101562 10.234375 123.578125 C 10.234375 122.050781 11.472656 120.8125 12.996094 120.8125 L 35.113281 120.8125 C 36.640625 120.8125 37.878906 122.050781 37.878906 123.578125 C 37.878906 125.101562 36.640625 126.339844 35.113281 126.339844 Z M 361.320312 126.339844 L 300.503906 126.339844 C 298.976562 126.339844 297.738281 125.101562 297.738281 123.578125 C 297.738281 122.050781 298.976562 120.8125 300.503906 120.8125 L 361.320312 120.8125 C 362.847656 120.8125 364.085938 122.050781 364.085938 123.578125 C 364.085938 125.101562 362.847656 126.339844 361.320312 126.339844 Z M 361.320312 126.339844 "/>
<g clip-path="url(#clip1)" clip-rule="nonzero">
<path style=" stroke:none;fill-rule:nonzero;fill:rgb(12.159729%,12.939453%,16.859436%);fill-opacity:1;" d="M 303.265625 369.613281 L 71.050781 369.613281 C 34.464844 369.613281 4.703125 339.851562 4.703125 303.265625 L 4.703125 71.050781 C 4.703125 34.464844 34.464844 4.703125 71.050781 4.703125 L 303.265625 4.703125 C 339.851562 4.703125 369.613281 34.464844 369.613281 71.050781 L 369.613281 303.265625 C 369.613281 339.851562 339.851562 369.613281 303.265625 369.613281 Z M 71.050781 15.761719 C 40.566406 15.761719 15.761719 40.566406 15.761719 71.050781 L 15.761719 303.265625 C 15.761719 333.753906 40.566406 358.558594 71.050781 358.558594 L 303.265625 358.558594 C 333.753906 358.558594 358.558594 333.753906 358.558594 303.265625 L 358.558594 71.050781 C 358.558594 40.566406 333.753906 15.761719 303.265625 15.761719 Z M 71.050781 15.761719 "/>
</g>
<path style=" stroke:none;fill-rule:nonzero;fill:rgb(12.159729%,12.939453%,16.859436%);fill-opacity:1;" d="M 187.160156 247.976562 C 153.625 247.976562 126.339844 220.691406 126.339844 187.160156 C 126.339844 153.625 153.625 126.339844 187.160156 126.339844 C 212.851562 126.339844 235.890625 142.601562 244.484375 166.808594 C 244.996094 168.246094 244.246094 169.828125 242.804688 170.339844 C 241.371094 170.839844 239.785156 170.09375 239.269531 168.652344 C 231.46875 146.65625 210.523438 131.871094 187.160156 131.871094 C 156.671875 131.871094 131.871094 156.671875 131.871094 187.160156 C 131.871094 217.644531 156.671875 242.449219 187.160156 242.449219 C 188.6875 242.449219 189.925781 243.6875 189.925781 245.214844 C 189.925781 246.738281 188.6875 247.976562 187.160156 247.976562 Z M 245.148438 187.164062 C 243.675781 187.164062 242.453125 186.007812 242.386719 184.527344 C 242.300781 182.746094 242.132812 180.984375 241.886719 179.253906 C 241.667969 177.742188 242.71875 176.34375 244.234375 176.128906 C 245.714844 175.941406 247.136719 176.957031 247.359375 178.480469 C 247.628906 180.386719 247.816406 182.316406 247.90625 184.273438 C 247.984375 185.800781 246.800781 187.09375 245.273438 187.160156 C 245.234375 187.164062 245.191406 187.164062 245.148438 187.164062 Z M 245.148438 187.164062 "/>
<path style=" stroke:none;fill-rule:nonzero;fill:rgb(12.159729%,12.939453%,16.859436%);fill-opacity:1;" d="M 159.714844 181.628906 C 156.164062 181.628906 152.773438 180.808594 149.640625 179.1875 C 142.335938 175.386719 137.796875 167.933594 137.796875 159.71875 C 137.796875 147.632812 147.628906 137.800781 159.714844 137.800781 C 171.800781 137.800781 181.628906 147.632812 181.628906 159.714844 C 181.628906 171.792969 171.800781 181.628906 159.714844 181.628906 Z M 159.714844 143.324219 C 150.675781 143.324219 143.324219 150.675781 143.324219 159.714844 C 143.324219 165.855469 146.714844 171.433594 152.183594 174.277344 C 154.527344 175.488281 157.058594 176.101562 159.714844 176.101562 C 168.753906 176.101562 176.101562 168.753906 176.101562 159.714844 C 176.101562 150.675781 168.753906 143.324219 159.714844 143.324219 Z M 322.617188 93.167969 L 278.386719 93.167969 C 276.859375 93.167969 275.621094 91.929688 275.621094 90.402344 L 275.621094 46.171875 C 275.621094 44.644531 276.859375 43.40625 278.386719 43.40625 L 322.617188 43.40625 C 324.144531 43.40625 325.382812 44.644531 325.382812 46.171875 L 325.382812 90.402344 C 325.382812 91.929688 324.144531 93.167969 322.617188 93.167969 Z M 281.152344 87.636719 L 319.855469 87.636719 L 319.855469 48.9375 L 281.152344 48.9375 Z M 35.113281 98.695312 C 33.585938 98.695312 32.347656 97.457031 32.347656 95.933594 L 32.347656 24.054688 C 32.347656 22.53125 33.585938 21.292969 35.113281 21.292969 C 36.640625 21.292969 37.878906 22.53125 37.878906 24.054688 L 37.878906 95.933594 C 37.878906 97.457031 36.640625 98.695312 35.113281 98.695312 Z M 84.875 115.285156 C 83.347656 115.285156 82.109375 114.042969 82.109375 112.519531 L 82.109375 29.585938 C 82.109375 28.058594 83.347656 26.820312 84.875 26.820312 C 86.398438 26.820312 87.636719 28.058594 87.636719 29.585938 L 87.636719 112.519531 C 87.636719 114.042969 86.398438 115.285156 84.875 115.285156 Z M 101.460938 126.339844 C 99.933594 126.339844 98.695312 125.101562 98.695312 123.578125 L 98.695312 101.460938 C 98.695312 99.933594 99.933594 98.695312 101.460938 98.695312 C 102.988281 98.695312 104.226562 99.933594 104.226562 101.460938 L 104.226562 123.578125 C 104.226562 125.101562 102.988281 126.339844 101.460938 126.339844 Z M 101.460938 87.636719 C 99.933594 87.636719 98.695312 86.398438 98.695312 84.875 L 98.695312 73.816406 C 98.695312 72.289062 99.933594 71.050781 101.460938 71.050781 C 102.988281 71.050781 104.226562 72.289062 104.226562 73.816406 L 104.226562 84.875 C 104.226562 86.398438 102.988281 87.636719 101.460938 87.636719 Z M 101.460938 59.992188 C 99.933594 59.992188 98.695312 58.753906 98.695312 57.230469 L 98.695312 12.996094 C 98.695312 11.472656 99.933594 10.234375 101.460938 10.234375 C 102.988281 10.234375 104.226562 11.472656 104.226562 12.996094 L 104.226562 57.230469 C 104.226562 58.753906 102.988281 59.992188 101.460938 59.992188 Z M 68.289062 54.464844 C 66.761719 54.464844 65.523438 53.226562 65.523438 51.699219 L 65.523438 12.996094 C 65.523438 11.472656 66.761719 10.234375 68.289062 10.234375 C 69.8125 10.234375 71.050781 11.472656 71.050781 12.996094 L 71.050781 51.699219 C 71.050781 53.226562 69.8125 54.464844 68.289062 54.464844 Z M 68.289062 115.285156 C 66.761719 115.285156 65.523438 114.042969 65.523438 112.519531 L 65.523438 68.289062 C 65.523438 66.761719 66.761719 65.523438 68.289062 65.523438 C 69.8125 65.523438 71.050781 66.761719 71.050781 68.289062 L 71.050781 112.519531 C 71.050781 114.042969 69.8125 115.285156 68.289062 115.285156 Z M 51.699219 115.285156 C 50.175781 115.285156 48.9375 114.042969 48.9375 112.519531 L 48.9375 101.460938 C 48.9375 99.933594 50.175781 98.695312 51.699219 98.695312 C 53.226562 98.695312 54.464844 99.933594 54.464844 101.460938 L 54.464844 112.519531 C 54.464844 114.042969 53.226562 115.285156 51.699219 115.285156 Z M 51.699219 87.636719 C 50.175781 87.636719 48.9375 86.398438 48.9375 84.875 L 48.9375 12.996094 C 48.9375 11.472656 50.175781 10.234375 51.699219 10.234375 C 53.226562 10.234375 54.464844 11.472656 54.464844 12.996094 L 54.464844 84.875 C 54.464844 86.398438 53.226562 87.636719 51.699219 87.636719 Z M 51.699219 87.636719 "/>
<path style=" stroke:none;fill-rule:nonzero;fill:rgb(12.159729%,12.939453%,16.859436%);fill-opacity:1;" d="M 90.402344 137.398438 L 46.171875 137.398438 C 38.546875 137.398438 32.347656 131.203125 32.347656 123.578125 C 32.347656 115.953125 38.546875 109.753906 46.171875 109.753906 L 90.402344 109.753906 C 98.027344 109.753906 104.226562 115.953125 104.226562 123.578125 C 104.226562 131.203125 98.027344 137.398438 90.402344 137.398438 Z M 46.171875 115.285156 C 41.597656 115.285156 37.878906 119.003906 37.878906 123.578125 C 37.878906 128.148438 41.597656 131.871094 46.171875 131.871094 L 90.402344 131.871094 C 94.976562 131.871094 98.695312 128.148438 98.695312 123.578125 C 98.695312 119.003906 94.976562 115.285156 90.402344 115.285156 Z M 46.171875 115.285156 "/>
</g>
</svg>
